<svg width="212" height="32" viewBox="0 0 212 32" fill="none" xmlns="http://www.w3.org/2000/svg">
<path d="M0.0227273 31.5V8.22727H15.4318V12.2841H4.94318V17.8295H14.4091V21.8864H4.94318V31.5H0.0227273ZM40.1278 19.8636C40.1278 22.4015 39.6468 24.5606 38.6847 26.3409C37.7301 28.1212 36.4271 29.4811 34.7756 30.4205C33.1316 31.3523 31.2831 31.8182 29.2301 31.8182C27.1619 31.8182 25.3059 31.3485 23.6619 30.4091C22.018 29.4697 20.7188 28.1098 19.7642 26.3295C18.8097 24.5492 18.3324 22.3939 18.3324 19.8636C18.3324 17.3258 18.8097 15.1667 19.7642 13.3864C20.7188 11.6061 22.018 10.25 23.6619 9.31818C25.3059 8.37879 27.1619 7.90909 29.2301 7.90909C31.2831 7.90909 33.1316 8.37879 34.7756 9.31818C36.4271 10.25 37.7301 11.6061 38.6847 13.3864C39.6468 15.1667 40.1278 17.3258 40.1278 19.8636ZM35.1392 19.8636C35.1392 18.2197 34.893 16.8333 34.4006 15.7045C33.9157 14.5758 33.2301 13.7197 32.3438 13.1364C31.4574 12.553 30.4195 12.2614 29.2301 12.2614C28.0407 12.2614 27.0028 12.553 26.1165 13.1364C25.2301 13.7197 24.5407 14.5758 24.0483 15.7045C23.5634 16.8333 23.321 18.2197 23.321 19.8636C23.321 21.5076 23.5634 22.8939 24.0483 24.0227C24.5407 25.1515 25.2301 26.0076 26.1165 26.5909C27.0028 27.1742 28.0407 27.4659 29.2301 27.4659C30.4195 27.4659 31.4574 27.1742 32.3438 26.5909C33.2301 26.0076 33.9157 25.1515 34.4006 24.0227C34.893 22.8939 35.1392 21.5076 35.1392 19.8636ZM43.7727 31.5V8.22727H52.9545C54.7121 8.22727 56.2121 8.54167 57.4545 9.17045C58.7045 9.79167 59.6553 10.6742 60.3068 11.8182C60.9659 12.9545 61.2955 14.2917 61.2955 15.8295C61.2955 17.375 60.9621 18.7045 60.2955 19.8182C59.6288 20.9242 58.6629 21.7727 57.3977 22.3636C56.1402 22.9545 54.6174 23.25 52.8295 23.25H46.6818V19.2955H52.0341C52.9735 19.2955 53.7538 19.1667 54.375 18.9091C54.9962 18.6515 55.4583 18.2652 55.7614 17.75C56.072 17.2348 56.2273 16.5947 56.2273 15.8295C56.2273 15.0568 56.072 14.4053 55.7614 13.875C55.4583 13.3447 54.9924 12.9432 54.3636 12.6705C53.7424 12.3902 52.9583 12.25 52.0114 12.25H48.6932V31.5H43.7727ZM56.3409 20.9091L62.125 31.5H56.6932L51.0341 20.9091H56.3409ZM64.7727 8.22727H70.8409L77.25 23.8636H77.5227L83.9318 8.22727H90V31.5H85.2273V16.3523H85.0341L79.0114 31.3864H75.7614L69.7386 16.2955H69.5455V31.5H64.7727V8.22727ZM108.429 8.22727H113.349V23.3409C113.349 25.0379 112.944 26.5227 112.134 27.7955C111.33 29.0682 110.205 30.0606 108.759 30.7727C107.312 31.4773 105.626 31.8295 103.702 31.8295C101.77 31.8295 100.08 31.4773 98.6335 30.7727C97.1866 30.0606 96.0616 29.0682 95.2585 27.7955C94.4555 26.5227 94.054 25.0379 94.054 23.3409V8.22727H98.9744V22.9205C98.9744 23.8068 99.1676 24.5947 99.554 25.2841C99.9479 25.9735 100.501 26.5152 101.213 26.9091C101.925 27.303 102.755 27.5 103.702 27.5C104.656 27.5 105.486 27.303 106.19 26.9091C106.902 26.5152 107.452 25.9735 107.838 25.2841C108.232 24.5947 108.429 23.8068 108.429 22.9205V8.22727ZM117.398 31.5V8.22727H122.318V27.4432H132.295V31.5H117.398ZM140.159 31.5H134.886L142.92 8.22727H149.261L157.284 31.5H152.011L146.182 13.5455H146L140.159 31.5ZM139.83 22.3523H152.284V26.1932H139.83V22.3523ZM144.352 5.97727L146.761 0.806818H151.239L147.773 5.97727H144.352ZM160.085 31.5V8.22727H169.267C171.025 8.22727 172.525 8.54167 173.767 9.17045C175.017 9.79167 175.968 10.6742 176.619 11.8182C177.278 12.9545 177.608 14.2917 177.608 15.8295C177.608 17.375 177.275 18.7045 176.608 19.8182C175.941 20.9242 174.975 21.7727 173.71 22.3636C172.453 22.9545 170.93 23.25 169.142 23.25H162.994V19.2955H168.347C169.286 19.2955 170.066 19.1667 170.688 18.9091C171.309 18.6515 171.771 18.2652 172.074 17.75C172.384 17.2348 172.54 16.5947 172.54 15.8295C172.54 15.0568 172.384 14.4053 172.074 13.875C171.771 13.3447 171.305 12.9432 170.676 12.6705C170.055 12.3902 169.271 12.25 168.324 12.25H165.006V31.5H160.085ZM172.653 20.9091L178.438 31.5H173.006L167.347 20.9091H172.653ZM186.006 8.22727V31.5H181.085V8.22727H186.006ZM211.44 19.8636C211.44 22.4015 210.959 24.5606 209.997 26.3409C209.043 28.1212 207.74 29.4811 206.088 30.4205C204.444 31.3523 202.596 31.8182 200.543 31.8182C198.474 31.8182 196.618 31.3485 194.974 30.4091C193.33 29.4697 192.031 28.1098 191.077 26.3295C190.122 24.5492 189.645 22.3939 189.645 19.8636C189.645 17.3258 190.122 15.1667 191.077 13.3864C192.031 11.6061 193.33 10.25 194.974 9.31818C196.618 8.37879 198.474 7.90909 200.543 7.90909C202.596 7.90909 204.444 8.37879 206.088 9.31818C207.74 10.25 209.043 11.6061 209.997 13.3864C210.959 15.1667 211.44 17.3258 211.44 19.8636ZM206.452 19.8636C206.452 18.2197 206.205 16.8333 205.713 15.7045C205.228 14.5758 204.543 13.7197 203.656 13.1364C202.77 12.553 201.732 12.2614 200.543 12.2614C199.353 12.2614 198.315 12.553 197.429 13.1364C196.543 13.7197 195.853 14.5758 195.361 15.7045C194.876 16.8333 194.634 18.2197 194.634 19.8636C194.634 21.5076 194.876 22.8939 195.361 24.0227C195.853 25.1515 196.543 26.0076 197.429 26.5909C198.315 27.1742 199.353 27.4659 200.543 27.4659C201.732 27.4659 202.77 27.1742 203.656 26.5909C204.543 26.0076 205.228 25.1515 205.713 24.0227C206.205 22.8939 206.452 21.5076 206.452 19.8636Z" fill="#A695B6"/>
</svg>
